<svg viewBox="0 0 170 32" xmlns="http://www.w3.org/2000/svg" xmlns:xlink="http://www.w3.org/1999/xlink"><defs><path id="a" d="M.006.041h14.742v16H.006z"/></defs><g fill="none" fill-rule="evenodd"><path d="M57.648 18.597c.337 2.214 2.145 3.742 4.597 3.742 1.992 0 3.954-.748 5.272-1.684v3.4c-1.288.748-3.25 1.403-5.517 1.403-4.444 0-7.755-3.306-7.755-8.015 0-4.522 3.219-7.984 7.57-7.984 4.323 0 7.173 3.337 7.173 7.391 0 .593-.092 1.31-.215 1.747H57.648zm-.03-2.65h8.12c-.06-2.153-1.746-3.619-3.952-3.619-2.269 0-3.954 1.622-4.169 3.618zM83.33 22.62c-1.104 1.746-2.943 2.838-5.18 2.838-4.291 0-7.325-3.524-7.325-8.015 0-4.522 3.034-7.984 7.356-7.984 2.237 0 4.045 1.06 5.149 2.807v-8.67h3.34v21.519h-3.34V22.62zm-4.505-9.793c-2.575 0-4.506 2.059-4.506 4.616 0 2.526 1.93 4.647 4.506 4.647 2.574 0 4.505-2.12 4.505-4.647 0-2.557-1.931-4.616-4.505-4.616zM92.216 2.973c1.195 0 2.054.966 2.054 2.12 0 1.185-.86 2.12-2.054 2.12-1.195 0-2.085-.935-2.085-2.12 0-1.154.89-2.12 2.085-2.12zM90.53 25.115h3.372V9.77H90.53v15.344zM105.517 12.703h-3.341v12.412h-3.372V12.703h-2.237V9.77h2.237v-1.34c0-3.338 2.054-5.147 5.18-5.147.521 0 1.318.125 1.655.219v3.461c-.307-.156-.98-.343-1.532-.343-1.257 0-1.931.811-1.931 1.996v1.154h3.34v2.932zM117.683 9.771l-3.923 9.855-3.74-9.855h-3.769l5.67 14.159-3.433 7.578h3.892l9.104-21.737zM124.302 20.53c1.41 0 2.421 1.06 2.421 2.464s-1.01 2.433-2.42 2.433c-1.35 0-2.36-1.03-2.36-2.433 0-1.403 1.01-2.464 2.36-2.464M133.466 11.736c.796-1.372 2.114-2.277 3.984-2.277 2.207 0 3.954 1.06 4.75 2.963.736-1.746 2.238-2.963 4.537-2.963 2.973 0 5.27 2.277 5.27 5.676v9.98h-3.37V16.07c0-2.09-1.196-3.275-2.912-3.275-1.747 0-3.003 1.185-3.003 3.275v9.044h-3.372V16.07c0-2.09-1.195-3.275-2.912-3.275-1.716 0-2.911 1.092-2.972 3.056v9.263h-3.372V9.77h3.372v1.965z" fill="#2A2A2D" fill-rule="nonzero"/><g transform="translate(154.758 9.418)"><mask id="b" fill="#fff"><use xlink:href="#a"/></mask><path d="M3.408 9.18c.337 2.213 2.146 3.741 4.598 3.741 1.992 0 3.953-.748 5.271-1.684v3.4c-1.287.748-3.249 1.403-5.517 1.403-4.444 0-7.754-3.306-7.754-8.015 0-4.522 3.218-7.984 7.57-7.984 4.322 0 7.172 3.337 7.172 7.391 0 .593-.092 1.31-.214 1.747H3.408zm-.03-2.652H11.5c-.062-2.152-1.747-3.617-3.954-3.617-2.268 0-3.954 1.621-4.168 3.617z" fill="#2A2A2D" fill-rule="nonzero" mask="url(#b)"/></g><path fill="#2A2A2D" fill-rule="nonzero" d="M41.558 3.596h3.372v12.693l5.087-6.518h3.954l-4.781 6.175 4.873 9.169H50.14l-3.432-6.767-1.778 2.276v4.49h-3.372zM38.705 12.6l-2.845 1.54c-.45-.933-1.005-1.4-1.668-1.4-.316 0-.586.106-.81.319-1.068 1.012.313 2.169 1.044 2.6 1.243.733 3.286 1.08 4.294 2.156.633.674.949 1.582.949 2.724 0 1.463-.53 2.688-1.591 3.674-1.03.934-2.275 1.4-3.733 1.4-2.499 0-4.268-1.24-5.309-3.72l2.938-1.385c.408.726.719 1.188.933 1.385.418.394.918.592 1.499.592 1.163 0 1.744-.54 1.744-1.62 0-.622-.449-1.203-1.346-1.743a46.577 46.577 0 0 0-1.04-.513c-1.373-.658-2.86-1.562-3.597-2.969-.829-1.582-.269-3.567.98-4.753.908-.861 2.01-1.292 3.305-1.292 1.907 0 3.325 1.002 4.253 3.005"/><g fill="#0541C8" fill-rule="nonzero"><path d="M20.67 6.223l-.09-.153C18.548 2.909 15.924.66 12.706.173A12.255 12.255 0 0 0 10.87.03c-4.942 0-8.948 3.177-9.717 8.195-.757 4.937 2.278 8.158 3.725 9.301 1.234.975 2.682 1.815 2.822 1.895l2.82-2.823-.02-.007c-3.697-1.518-6.214-4.72-5.795-7.92.49-3.337 2.937-5.55 7.132-5.123 3.242.33 5.405 3.887 5.91 4.648.173.26.205.31.304.504l.12.238 2.582-2.585-.083-.13z"/><path d="M20.897 16.654c-1.09-2.433-2.977-4.781-7.503-7.08l-2.717 2.791.007.002 2.703-2.778-2.703 2.778c.234.08 7.445 2.591 7.445 8.47 0 4.695-3.972 6.616-7.131 6.616-2.676 0-5.604-1.852-7.053-4.324-1.021-1.74-1.254-2.45-1.254-2.45l-.025-.07L0 23.348c.199.499.507 1.16.978 1.934 3.37 5.543 9.252 5.805 9.502 5.805 3.686 0 7.547-1.435 9.706-4.61 1.987-2.921 2.253-6.685.711-9.824"/></g></g></svg>